<svg width="993" height="662" viewBox="0 0 993 662" fill="none" xmlns="http://www.w3.org/2000/svg">
<path fill-rule="evenodd" clip-rule="evenodd" d="M496.5 617.718C595.436 560.487 662 453.517 662 331C662 208.483 595.436 101.513 496.5 44.2819C545.186 16.1188 601.71 0 662 0C844.806 0 993 148.194 993 331C993 513.806 844.806 662 662 662C601.71 662 545.186 645.881 496.5 617.718ZM496.5 617.718C447.814 645.881 391.29 662 331 662C148.194 662 0 513.806 0 331C0 148.194 148.194 0 331 0C391.29 0 447.814 16.1188 496.5 44.2819C397.564 101.513 331 208.483 331 331C331 453.517 397.564 560.487 496.5 617.718Z" fill="#DC326D"/>
<path fill-rule="evenodd" clip-rule="evenodd" d="M496.5 617.718C595.436 560.487 662 453.517 662 331C662 208.483 595.436 101.513 496.5 44.2819C545.186 16.1188 601.71 0 662 0C844.806 0 993 148.194 993 331C993 513.806 844.806 662 662 662C601.71 662 545.186 645.881 496.5 617.718ZM496.5 617.718C447.814 645.881 391.29 662 331 662C148.194 662 0 513.806 0 331C0 148.194 148.194 0 331 0C391.29 0 447.814 16.1188 496.5 44.2819C397.564 101.513 331 208.483 331 331C331 453.517 397.564 560.487 496.5 617.718Z" fill="#EAA527"/>
</svg>
